<?xml version="1.0" standalone="no"?><!DOCTYPE svg PUBLIC "-//W3C//DTD SVG 1.1//EN" "http://www.w3.org/Graphics/SVG/1.1/DTD/svg11.dtd"><svg t="1644203653034" class="icon" viewBox="0 0 1024 1024" version="1.1" xmlns="http://www.w3.org/2000/svg" p-id="9353" xmlns:xlink="http://www.w3.org/1999/xlink" width="200" height="200"><defs><style type="text/css"></style></defs><path d="M934.989824 798.204928 728.061952 591.27296c0 0-25.198592-21.021696-8.148992-47.665152 16.918528-40.154112 26.3424-84.230144 26.3424-130.541568 0-186.354688-151.068672-337.419264-337.424384-337.419264-32.124928 0-63.101952 4.70016-92.489728 13.186048-25.182208 8.679424-7.297024 26.976256-7.297024 26.976256L464.493568 271.2576c49.924096 49.92 49.924096 130.86208 0 180.786176l-15.066112 15.062016c-49.92 49.924096-130.86208 49.924096-180.786176 0L110.743552 309.209088c0 0-16.201728-13.57312-24.827904 6.810624-9.329664 30.738432-14.501888 63.26272-14.501888 97.045504 0 186.354688 151.064576 337.42848 337.419264 337.42848 50.5088 0 98.400256-11.140096 141.4144-31.04256 19.42528-10.06592 33.886208 6.510592 33.886208 6.510592l211.454976 211.64032c21.174272 21.178368 50.19136 29.737984 77.707264 25.67168 0 0 71.246848-6.39488 87.115776-85.777408C965.049344 849.519616 956.57472 819.785728 934.989824 798.204928z" p-id="9354" fill="#cdcdcd"></path></svg>