<?xml version="1.0" standalone="no"?><!DOCTYPE svg PUBLIC "-//W3C//DTD SVG 1.1//EN" "http://www.w3.org/Graphics/SVG/1.1/DTD/svg11.dtd"><svg t="1644374710683" class="icon" viewBox="0 0 1024 1024" version="1.1" xmlns="http://www.w3.org/2000/svg" p-id="11564" xmlns:xlink="http://www.w3.org/1999/xlink" width="200" height="200"><defs><style type="text/css"></style></defs><path d="M938.666667 72.533333H128c-23.466667 0-42.666667 19.2-42.666667 42.666667v618.666667c0 23.466667 19.2 42.666667 42.666667 42.666666h245.333333c17.066667 0 32-14.933333 32-32s-14.933333-32-32-32H149.333333v-576h768v576H635.733333l25.6 64h277.333334c23.466667 0 42.666667-19.2 42.666666-42.666666v-618.666667c0-23.466667-19.2-42.666667-42.666666-42.666667z" p-id="11565" fill="#cdcdcd"></path><path d="M309.333333 424.533333m-53.333333 0a53.333333 53.333333 0 1 0 106.666667 0 53.333333 53.333333 0 1 0-106.666667 0Z" p-id="11566" fill="#cdcdcd"></path><path d="M533.333333 424.533333m-53.333333 0a53.333333 53.333333 0 1 0 106.666667 0 53.333333 53.333333 0 1 0-106.666667 0Z" p-id="11567" fill="#cdcdcd"></path><path d="M757.333333 424.533333m-53.333333 0a53.333333 53.333333 0 1 0 106.666667 0 53.333333 53.333333 0 1 0-106.666667 0Z" p-id="11568" fill="#cdcdcd"></path><path d="M678.4 759.466667l-202.666667 202.666666c-12.8 12.8-32 12.8-44.8 0-12.8-12.8-12.8-32 0-44.8l206.933334-206.933333 40.533333 49.066667z" p-id="11569" fill="#cdcdcd"></path></svg>