<?xml version="1.0" standalone="no"?><!DOCTYPE svg PUBLIC "-//W3C//DTD SVG 1.1//EN" "http://www.w3.org/Graphics/SVG/1.1/DTD/svg11.dtd"><svg t="1644203024191" class="icon" viewBox="0 0 1024 1024" version="1.1" xmlns="http://www.w3.org/2000/svg" p-id="3030" width="200" height="200"><path d="M794 139.6H231.4c-48.5 0-87.9 39.4-87.9 87.9v562.6c0 48.5 39.4 87.9 87.9 87.9H794c48.5 0 87.9-39.4 87.9-87.9V227.5c0-48.4-39.4-87.9-87.9-87.9z m-56.5 323.2L653 545.4c-5.8 5.7-8.5 13.9-7.1 21.9l19.9 116.6c3.5 20.2-17.7 35.7-35.8 26.1l-104.5-55.1c-7.2-3.8-15.8-3.8-23 0L398.1 710c-18.1 9.6-39.3-5.9-35.8-26.1l19.9-116.6c1.4-8-1.3-16.2-7.1-21.9l-84.5-82.6c-14.7-14.3-6.6-39.3 13.7-42.2l116.8-17c8-1.2 15-6.2 18.6-13.5L491.9 284c9.1-18.4 35.2-18.4 44.3 0l52.2 106c3.6 7.3 10.6 12.4 18.6 13.5l116.8 17c20.3 3 28.3 27.9 13.7 42.3z" p-id="3031" fill="#cdcdcd"></path></svg>
